# Blender 4.2.1 LTS
# www.blender.org
mtllib caterpillar.mtl
o caterpillar
v -0.302622 0.202954 1.019689
v -0.302622 0.870668 0.888429
v -0.302622 0.616422 0.246967
v -0.302622 1.264447 0.246967
v 0.302622 0.202954 1.019689
v 0.302622 0.870668 0.888429
v 0.302622 0.616422 0.246967
v 0.302622 1.264447 0.246967
v -0.165129 0.238833 1.708985
v -0.014801 0.597687 1.673537
v 0.165129 0.238833 1.708985
v 0.228073 0.597687 1.673537
v -0.302622 0.367028 -0.133686
v -0.302622 1.021617 -0.278072
v 0.302622 0.367028 -0.133686
v 0.302622 1.021617 -0.278072
v -0.302622 0.026821 -0.970699
v -0.528470 0.801152 -0.932593
v 0.302622 0.026821 -0.970699
v 0.528470 0.801152 -0.932593
v -0.241148 0.103793 -1.034976
v -0.421117 0.670765 -1.049496
v 0.241148 0.103793 -1.034976
v 0.421117 0.670765 -1.049496
v -0.241148 0.312246 -1.948527
v -0.241148 0.985835 -1.714926
v 0.241148 0.312246 -1.948527
v 0.241148 0.985835 -1.714926
v -0.127036 0.539676 -2.126141
v -0.127036 0.894521 -2.003081
v 0.127036 0.539676 -2.126141
v 0.127036 0.894521 -2.003081
v 0.210957 0.120474 1.239825
v 0.210957 0.232805 1.242462
v 0.210957 0.120474 1.124857
v 0.210957 0.214342 1.085294
v 0.317810 0.120474 1.239825
v 0.317810 0.232805 1.242462
v 0.317810 0.120474 1.124857
v 0.317810 0.214342 1.085294
v 0.210957 0.232805 1.242462
v 0.317810 0.232805 1.242462
v 0.210957 0.232805 1.242462
v 0.317810 0.232805 1.242462
v 0.210957 0.232805 1.242462
v 0.317810 0.232805 1.242462
v -0.287102 0.120474 1.239825
v -0.287102 0.232805 1.242462
v -0.287102 0.120474 1.124857
v -0.287102 0.214342 1.085294
v -0.180249 0.120474 1.239825
v -0.180249 0.232805 1.242462
v -0.180249 0.120474 1.124857
v -0.180249 0.214342 1.085294
v -0.287102 0.232805 1.242462
v -0.180249 0.232805 1.242462
v -0.287102 0.232805 1.242462
v -0.180249 0.232805 1.242462
v -0.287102 0.232805 1.242462
v -0.180249 0.232805 1.242462
v 0.210957 0.345705 0.542503
v 0.210957 0.441588 0.601083
v 0.210957 0.403325 0.443017
v 0.210957 0.504381 0.455826
v 0.317810 0.345705 0.542503
v 0.317810 0.441588 0.601083
v 0.317810 0.403325 0.443017
v 0.317810 0.504381 0.455826
v -0.287102 0.345705 0.542503
v -0.287102 0.441588 0.601083
v -0.287102 0.403325 0.443017
v -0.287102 0.504381 0.455826
v -0.180249 0.345705 0.542503
v -0.180249 0.441588 0.601083
v -0.180249 0.403325 0.443017
v -0.180249 0.504381 0.455826
v -0.287102 0.441588 0.601083
v -0.180249 0.441588 0.601083
v -0.287102 0.441588 0.601083
v -0.180249 0.441588 0.601083
v -0.287102 0.441588 0.601083
v -0.180249 0.441588 0.601083
v 0.210957 0.084797 -0.556361
v 0.210957 0.194089 -0.582446
v 0.210957 0.055490 -0.667531
v 0.210957 0.136172 -0.729715
v 0.317810 0.084797 -0.556361
v 0.317810 0.194089 -0.582446
v 0.317810 0.055490 -0.667531
v 0.317810 0.136172 -0.729715
v -0.287102 0.084797 -0.556361
v -0.287102 0.194089 -0.582446
v -0.287102 0.055490 -0.667531
v -0.287102 0.136172 -0.729715
v -0.180249 0.084797 -0.556361
v -0.180249 0.194089 -0.582446
v -0.180249 0.055490 -0.667531
v -0.180249 0.136172 -0.729715
v -0.287102 0.194089 -0.582446
v -0.180249 0.194089 -0.582446
v -0.287102 0.194089 -0.582446
v -0.180249 0.194089 -0.582446
v -0.287102 0.194089 -0.582446
v -0.180249 0.194089 -0.582446
v 0.210957 0.455336 0.167337
v 0.210957 0.548666 0.104769
v 0.210957 0.389093 0.073372
v 0.210957 0.443017 -0.013049
v 0.317810 0.455336 0.167337
v 0.317810 0.548666 0.104769
v 0.317810 0.389093 0.073372
v 0.317810 0.443017 -0.013049
v -0.287102 0.455336 0.167337
v -0.287102 0.548666 0.104769
v -0.287102 0.389093 0.073372
v -0.287102 0.443017 -0.013049
v -0.180249 0.455336 0.167337
v -0.180249 0.548666 0.104769
v -0.180249 0.389093 0.073372
v -0.180249 0.443017 -0.013049
v -0.287102 0.548666 0.104769
v -0.180249 0.548666 0.104769
v -0.287102 0.548666 0.104769
v -0.180249 0.548666 0.104769
v -0.287102 0.548666 0.104769
v -0.180249 0.548666 0.104769
v 0.210957 0.068078 -1.343053
v 0.210957 0.173337 -1.303739
v 0.210957 0.105765 -1.451669
v 0.210957 0.207415 -1.458276
v 0.317810 0.068078 -1.343053
v 0.317810 0.173337 -1.303739
v 0.317810 0.105765 -1.451669
v 0.317810 0.207415 -1.458276
v -0.287102 0.068078 -1.343053
v -0.287102 0.173337 -1.303739
v -0.287102 0.105765 -1.451669
v -0.287102 0.207415 -1.458276
v -0.180249 0.068078 -1.343053
v -0.180249 0.173337 -1.303739
v -0.180249 0.105765 -1.451669
v -0.180249 0.207415 -1.458276
v -0.287102 0.173337 -1.303739
v -0.180249 0.173337 -1.303739
v -0.287102 0.173337 -1.303739
v -0.180249 0.173337 -1.303739
v -0.287102 0.173337 -1.303739
v -0.180249 0.173337 -1.303739
v -0.531067 0.536811 0.954059
v -0.777601 0.940435 0.246967
v 0.777601 0.940435 0.246967
v 0.531067 0.536811 0.954059
v -0.534323 0.438149 1.689297
v 0.321050 0.517705 1.681438
v -0.416667 0.694323 -0.205879
v 0.416667 0.694323 -0.205879
v -0.480570 0.401466 -1.044302
v 0.480570 0.401466 -1.044302
v -0.421714 0.402570 -1.107117
v 0.421714 0.402570 -1.107117
v -0.782272 0.649040 -1.831727
v 0.782272 0.649040 -1.831727
v -0.127036 0.717099 -2.064611
v 0.127036 0.717099 -2.064611
vn -0.5693 0.6579 0.4931
vn -0.0000 0.9076 -0.4198
vn 0.5693 0.6579 0.4931
vn -0.6678 -0.7437 0.0302
vn -0.0000 -0.8817 -0.4718
vn -0.0000 0.8522 0.5232
vn -0.0000 0.0983 0.9952
vn -0.0000 -0.9986 0.0520
vn -0.0000 0.9445 0.3284
vn 0.7400 0.6207 0.2591
vn 0.9222 -0.3489 0.1670
vn -0.6630 0.5424 -0.5159
vn 0.7437 -0.6645 0.0730
vn -0.0000 -0.8365 0.5480
vn -0.0000 0.6676 -0.7446
vn -0.0000 -0.9264 0.3765
vn -0.0000 0.9477 -0.3192
vn -0.9833 0.0806 0.1631
vn -0.0000 0.9038 0.4279
vn -0.6769 0.1355 -0.7235
vn 0.5076 -0.4316 -0.7457
vn -0.0000 -0.6410 -0.7676
vn 0.4249 -0.1368 -0.8948
vn -0.7486 0.5753 0.3296
vn 0.6618 -0.7471 -0.0618
vn -0.0000 -0.9749 -0.2225
vn -0.0000 0.3277 -0.9448
vn -0.0000 -0.6155 -0.7881
vn -0.0000 0.9533 -0.3021
vn -0.4110 0.6531 -0.6360
vn -1.0000 -0.0000 -0.0000
vn -0.0000 -0.3884 -0.9215
vn 1.0000 -0.0000 -0.0000
vn -0.0000 -0.0235 0.9997
vn -0.0000 -1.0000 -0.0000
vn -0.0000 0.9932 -0.1167
vn -0.0000 1.0000 -0.0000
vn -0.0000 0.1257 -0.9921
vn -0.0000 -0.5214 0.8533
vn -0.0000 -0.8653 -0.5012
vn -0.0000 0.9179 0.3968
vn -0.0000 -0.6105 -0.7920
vn -0.0000 0.2321 0.9727
vn -0.0000 -0.9670 0.2549
vn -0.0000 0.9306 -0.3660
vn -0.0000 -0.8484 -0.5294
vn -0.0000 0.5568 0.8306
vn -0.0000 -0.8173 0.5762
vn -0.0000 0.7445 -0.6676
vn -0.0000 -0.0649 -0.9979
vn -0.0000 -0.3499 0.9368
vn -0.0000 -0.9447 -0.3278
vn -0.0000 0.9765 0.2153
vn -0.4249 -0.1368 -0.8948
vn 0.7486 0.5753 0.3296
vn -0.6618 -0.7471 -0.0618
vn 0.4110 0.6531 -0.6360
vn 0.6769 0.1355 -0.7235
vn -0.5076 -0.4316 -0.7457
vn -0.9222 -0.3489 0.1670
vn 0.6630 0.5424 -0.5159
vn -0.7437 -0.6645 0.0730
vn 0.9833 0.0806 0.1631
vn 0.8420 -0.4959 0.2124
vn -0.5041 0.8125 0.2930
vn 0.6399 -0.7128 -0.2870
vn -0.6399 -0.7128 -0.2870
vt 0.500000 0.000000
vt 0.625000 0.000000
vt 0.625000 0.250000
vt 0.500000 0.250000
vt 0.875000 0.500000
vt 0.625000 0.500000
vt 0.500000 0.500000
vt 0.625000 0.750000
vt 0.500000 0.750000
vt 0.375000 0.000000
vt 0.125000 0.500000
vt 0.375000 0.500000
vt 0.375000 0.750000
vt 0.125000 0.750000
vt 0.875000 0.750000
vt 0.625000 1.000000
vt 0.500000 1.000000
vt 0.500000 0.500000
vt 0.500000 0.250000
vt 0.500000 0.500000
vt 0.500000 0.500000
vt 0.375000 0.250000
vt 0.375000 1.000000
vt 0.000000 0.000000
s 0
f 149/1/1 2/2/1 4/3/1 150/4/1
f 4/5/2 8/6/2 16/6/2 14/5/2
f 151/7/3 8/6/3 6/8/3 152/9/3
f 149/1/4 1/10/4 9/10/4 153/1/4
f 3/11/5 7/12/5 5/13/5 1/14/5
f 8/6/6 4/5/6 2/15/6 6/8/6
f 154/9/7 12/8/7 10/16/7 153/17/7
f 1/14/8 5/13/8 11/13/8 9/14/8
f 6/8/9 2/15/9 10/15/9 12/8/9
f 152/9/10 6/8/10 12/8/10 154/9/10
f 156/18/11 15/12/11 19/12/11 158/18/11
f 150/4/12 4/3/12 14/3/12 155/4/12
f 151/7/13 7/12/13 15/12/13 156/18/13
f 7/12/14 3/11/14 13/11/14 15/12/14
f 18/5/15 20/6/15 24/6/15 22/5/15
f 15/12/16 13/11/16 17/11/16 19/12/16
f 14/5/17 16/6/17 20/6/17 18/5/17
f 155/4/18 14/3/18 18/3/18 157/4/18
f 22/5/19 24/6/19 28/6/19 26/5/19
f 157/4/20 18/3/20 22/3/20 159/19/20
f 158/18/21 19/12/21 23/12/21 160/20/21
f 19/12/22 17/11/22 21/11/22 23/12/22
f 162/21/23 27/12/23 31/12/23 164/20/23
f 159/19/24 22/3/24 26/3/24 161/4/24
f 160/20/25 23/12/25 27/12/25 162/21/25
f 23/12/26 21/11/26 25/11/26 27/12/26
f 163/4/27 30/3/27 32/6/27 164/20/27
f 27/12/28 25/11/28 29/11/28 31/12/28
f 26/5/29 28/6/29 32/6/29 30/5/29
f 161/4/30 26/3/30 30/3/30 163/4/30
f 33/10/31 34/2/31 36/3/31 35/22/31
f 35/22/32 36/3/32 40/6/32 39/12/32
f 39/12/33 40/6/33 38/8/33 37/13/33
f 37/13/34 38/8/34 34/16/34 33/23/34
f 35/11/35 39/12/35 37/13/35 33/14/35
f 40/6/36 36/5/36 34/15/36 38/8/36
f 42/24/37 38/24/37 44/24/37 46/24/37
f 44/8/37 43/16/37 45/16/37 46/8/37
f 41/24/37 42/24/37 46/24/37 45/24/37
f 34/24/37 41/24/37 45/24/37 43/24/37
f 38/8/37 34/15/37 43/15/37 44/8/37
f 47/10/31 48/2/31 50/3/31 49/22/31
f 49/22/32 50/3/32 54/6/32 53/12/32
f 53/12/33 54/6/33 52/8/33 51/13/33
f 51/13/34 52/8/34 48/16/34 47/23/34
f 49/11/35 53/12/35 51/13/35 47/14/35
f 54/6/36 50/5/36 48/15/36 52/8/36
f 56/24/37 52/24/37 58/24/37 60/24/37
f 58/8/37 57/16/37 59/16/37 60/8/37
f 55/24/37 56/24/37 60/24/37 59/24/37
f 48/24/37 55/24/37 59/24/37 57/24/37
f 52/8/37 48/15/37 57/15/37 58/8/37
f 61/10/31 62/2/31 64/3/31 63/22/31
f 63/22/38 64/3/38 68/6/38 67/12/38
f 67/12/33 68/6/33 66/8/33 65/13/33
f 65/13/39 66/8/39 62/16/39 61/23/39
f 63/11/40 67/12/40 65/13/40 61/14/40
f 68/6/41 64/5/41 62/15/41 66/8/41
f 69/10/31 70/2/31 72/3/31 71/22/31
f 71/22/38 72/3/38 76/6/38 75/12/38
f 75/12/33 76/6/33 74/8/33 73/13/33
f 73/13/39 74/8/39 70/16/39 69/23/39
f 71/11/40 75/12/40 73/13/40 69/14/40
f 76/6/41 72/5/41 70/15/41 74/8/41
f 78/24/37 74/24/37 80/24/37 82/24/37
f 80/8/37 79/16/37 81/16/37 82/8/37
f 77/24/37 78/24/37 82/24/37 81/24/37
f 70/24/37 77/24/37 81/24/37 79/24/37
f 74/8/37 70/15/37 79/15/37 80/8/37
f 83/10/31 84/2/31 86/3/31 85/22/31
f 85/22/42 86/3/42 90/6/42 89/12/42
f 89/12/33 90/6/33 88/8/33 87/13/33
f 87/13/43 88/8/43 84/16/43 83/23/43
f 85/11/44 89/12/44 87/13/44 83/14/44
f 90/6/45 86/5/45 84/15/45 88/8/45
f 91/10/31 92/2/31 94/3/31 93/22/31
f 93/22/42 94/3/42 98/6/42 97/12/42
f 97/12/33 98/6/33 96/8/33 95/13/33
f 95/13/43 96/8/43 92/16/43 91/23/43
f 93/11/44 97/12/44 95/13/44 91/14/44
f 98/6/45 94/5/45 92/15/45 96/8/45
f 100/24/37 96/24/37 102/24/37 104/24/37
f 102/8/37 101/16/37 103/16/37 104/8/37
f 99/24/37 100/24/37 104/24/37 103/24/37
f 92/24/37 99/24/37 103/24/37 101/24/37
f 96/8/37 92/15/37 101/15/37 102/8/37
f 105/10/31 106/2/31 108/3/31 107/22/31
f 107/22/46 108/3/46 112/6/46 111/12/46
f 111/12/33 112/6/33 110/8/33 109/13/33
f 109/13/47 110/8/47 106/16/47 105/23/47
f 107/11/48 111/12/48 109/13/48 105/14/48
f 112/6/49 108/5/49 106/15/49 110/8/49
f 113/10/31 114/2/31 116/3/31 115/22/31
f 115/22/46 116/3/46 120/6/46 119/12/46
f 119/12/33 120/6/33 118/8/33 117/13/33
f 117/13/47 118/8/47 114/16/47 113/23/47
f 115/11/48 119/12/48 117/13/48 113/14/48
f 120/6/49 116/5/49 114/15/49 118/8/49
f 122/24/37 118/24/37 124/24/37 126/24/37
f 124/8/37 123/16/37 125/16/37 126/8/37
f 121/24/37 122/24/37 126/24/37 125/24/37
f 114/24/37 121/24/37 125/24/37 123/24/37
f 118/8/37 114/15/37 123/15/37 124/8/37
f 127/10/31 128/2/31 130/3/31 129/22/31
f 129/22/50 130/3/50 134/6/50 133/12/50
f 133/12/33 134/6/33 132/8/33 131/13/33
f 131/13/51 132/8/51 128/16/51 127/23/51
f 129/11/52 133/12/52 131/13/52 127/14/52
f 134/6/53 130/5/53 128/15/53 132/8/53
f 135/10/31 136/2/31 138/3/31 137/22/31
f 137/22/50 138/3/50 142/6/50 141/12/50
f 141/12/33 142/6/33 140/8/33 139/13/33
f 139/13/51 140/8/51 136/16/51 135/23/51
f 137/11/52 141/12/52 139/13/52 135/14/52
f 142/6/53 138/5/53 136/15/53 140/8/53
f 144/24/37 140/24/37 146/24/37 148/24/37
f 146/8/37 145/16/37 147/16/37 148/8/37
f 143/24/37 144/24/37 148/24/37 147/24/37
f 136/24/37 143/24/37 147/24/37 145/24/37
f 140/8/37 136/15/37 145/15/37 146/8/37
f 25/22/54 161/4/54 163/4/54 29/22/54
f 29/22/27 163/4/27 164/20/27 31/12/27
f 24/6/55 160/20/55 162/21/55 28/6/55
f 21/22/56 159/19/56 161/4/56 25/22/56
f 28/6/57 162/21/57 164/20/57 32/6/57
f 20/6/58 158/18/58 160/20/58 24/6/58
f 17/22/59 157/4/59 159/19/59 21/22/59
f 13/22/60 155/4/60 157/4/60 17/22/60
f 8/6/61 151/7/61 156/18/61 16/6/61
f 3/22/62 150/4/62 155/4/62 13/22/62
f 16/6/63 156/18/63 158/18/63 20/6/63
f 5/13/64 152/9/64 154/9/64 11/13/64
f 11/13/7 154/9/7 153/17/7 9/23/7
f 2/2/65 149/1/65 153/1/65 10/2/65
f 7/12/66 151/7/66 152/9/66 5/13/66
f 1/10/67 149/1/67 150/4/67 3/22/67
