# Blender 4.2.1 LTS
# www.blender.org
mtllib opener.mtl
o Cube
v 0.000000 0.099766 -0.589348
v 0.000000 1.983981 -0.567471
v 0.362423 0.099766 -0.414814
v 0.362423 1.983981 -0.392937
v 0.451935 0.099766 -0.022639
v 0.451935 1.983981 -0.000763
v 0.201130 0.099766 0.291860
v 0.201130 1.983981 0.313736
v -0.201130 0.099766 0.291860
v -0.201130 1.983981 0.313736
v -0.451935 0.099766 -0.022639
v -0.451935 1.983981 -0.000763
v -0.362423 0.099766 -0.414814
v -0.362423 1.983981 -0.392937
v 0.000000 -0.053371 -0.441441
v 0.238234 -0.053371 -0.326714
v 0.297072 -0.053371 -0.068924
v 0.132210 -0.053371 0.137807
v -0.132210 -0.053371 0.137807
v -0.297072 -0.053371 -0.068924
v -0.238234 -0.053371 -0.326714
v 0.000000 2.038673 -0.490668
v 0.302376 2.038673 -0.345051
v 0.377057 2.038673 -0.017853
v 0.167806 2.038673 0.244539
v -0.167806 2.038673 0.244539
v -0.377057 2.038673 -0.017853
v -0.302376 2.038673 -0.345051
v 0.000000 2.312130 -0.406200
v 0.236337 2.312130 -0.292386
v 0.294707 2.312130 -0.036649
v 0.131157 2.312130 0.168436
v -0.131157 2.312130 0.168436
v -0.294707 2.312130 -0.036649
v -0.236337 2.312130 -0.292386
v 0.000000 3.395023 -0.485572
v 0.298393 3.395023 -0.341874
v 0.372090 3.395023 -0.018987
v 0.165595 3.395023 0.239949
v -0.165595 3.395023 0.239949
v -0.372090 3.395023 -0.018987
v -0.298393 3.395023 -0.341874
v 0.189076 3.395023 -0.254697
v 0.000000 3.395023 -0.345751
v 0.235773 3.395023 -0.050100
v 0.104929 3.398188 0.151954
v -0.104929 3.398188 0.151954
v -0.235773 3.395023 -0.050100
v -0.189076 3.395023 -0.254697
v 0.213353 3.683039 -0.255067
v 0.000000 3.648224 -0.373638
v 0.266047 3.683039 -0.024200
v 0.118402 3.629234 0.164105
v -0.118402 3.629234 0.164105
v -0.266047 3.683039 -0.024200
v -0.213353 3.683039 -0.255067
v -0.059903 3.613420 0.067352
v -0.059903 3.613420 -0.279819
v 0.059903 3.613420 0.067352
v 0.059903 3.613420 -0.279819
v -0.059903 3.941063 0.067352
v 0.059903 3.941063 0.067352
v 0.059903 3.941063 -0.279819
v -0.059903 3.941063 -0.279819
v 0.059903 4.599868 0.067352
v 0.059903 4.349832 -0.279819
v -0.059903 4.349832 -0.279819
v -0.059903 4.599868 0.067352
v 0.006162 4.001199 -0.485545
v -0.006162 4.001199 -0.485545
v 0.006162 4.280201 -0.472885
v -0.006162 4.280201 -0.472885
v 0.006162 4.141595 -0.662729
v -0.006162 4.141595 -0.662729
v 0.006162 4.388947 -0.567778
v -0.006162 4.388947 -0.567778
v 0.006162 4.323997 -0.745182
v -0.006162 4.323997 -0.745182
v 0.006162 4.501718 -0.577436
v -0.006162 4.501718 -0.577436
v 0.006162 4.463950 -0.715418
v -0.006162 4.463950 -0.715418
v 0.006162 4.606857 -0.535012
v -0.006162 4.606857 -0.535012
v -0.010014 3.956888 0.228768
v 0.010014 3.956888 0.228768
v 0.010014 4.599868 0.266748
v -0.010014 4.599868 0.266748
v -0.010014 4.187156 0.512799
v 0.010014 4.187156 0.512799
v 0.010014 4.978891 0.591925
v -0.010014 4.978891 0.591925
v -0.010014 4.415417 0.629310
v 0.010014 4.415417 0.629310
v 0.010014 4.646944 0.648301
v -0.010014 4.646944 0.648301
v 0.010014 5.047877 0.274900
v -0.010014 5.047877 0.274900
v 0.010014 5.284475 0.448156
v -0.010014 5.284475 0.448156
v 0.010014 5.365693 0.287875
v -0.010014 5.365693 0.287875
v 0.010014 5.456700 0.312375
v -0.010014 5.456700 0.312375
v 0.015989 5.086243 0.067352
v 0.059903 5.042328 0.067352
v 0.059903 5.042328 -0.279819
v 0.015989 5.086243 -0.279819
v -0.059903 5.043562 0.067352
v -0.017223 5.086243 0.067352
v -0.017223 5.086243 -0.279819
v -0.059903 5.043562 -0.279819
vn 0.4339 0.0105 -0.9009
vn 0.9749 0.0026 -0.2225
vn 0.7818 -0.0072 0.6235
vn -0.0000 -0.0116 0.9999
vn -0.7818 -0.0072 0.6235
vn -0.2690 0.7845 -0.5587
vn -0.9749 0.0026 -0.2225
vn -0.4339 0.0105 -0.9009
vn 0.5586 -0.6996 0.4455
vn -0.0000 -1.0000 -0.0000
vn -0.7180 -0.6765 -0.1639
vn -0.0000 -0.7092 0.7050
vn -0.3273 -0.6565 -0.6797
vn 0.7180 -0.6765 -0.1639
vn -0.5586 -0.6996 0.4455
vn 0.3273 -0.6565 -0.6797
vn -0.9392 0.2681 -0.2144
vn 0.6045 0.7845 -0.1380
vn -0.4848 0.7845 0.3866
vn 0.2690 0.7845 -0.5587
vn 0.4848 0.7845 0.3866
vn -0.6045 0.7845 -0.1380
vn -0.0000 0.7845 0.6201
vn -0.7801 -0.0659 0.6221
vn -0.0000 0.2681 0.9634
vn 0.9392 0.2681 -0.2144
vn -0.4180 0.2681 -0.8680
vn -0.7532 0.2681 0.6007
vn 0.7532 0.2681 0.6007
vn 0.4180 0.2681 -0.8680
vn -0.0000 1.0000 -0.0000
vn 0.7801 -0.0659 0.6221
vn 0.4329 -0.0659 -0.8990
vn -0.9728 -0.0659 -0.2220
vn -0.0000 -0.0659 0.9978
vn 0.9728 -0.0659 -0.2220
vn -0.4329 -0.0659 -0.8990
vn -0.9716 -0.0822 -0.2218
vn -0.0140 0.9999 0.0034
vn 0.0140 0.9999 0.0034
vn -0.0000 0.9994 0.0359
vn -0.0000 0.9980 0.0635
vn -0.0000 -0.0525 0.9986
vn 0.9716 -0.0822 -0.2218
vn -0.4655 -0.0670 -0.8825
vn -0.8158 -0.1104 0.5677
vn 0.8158 -0.1104 0.5677
vn 0.4655 -0.0670 -0.8825
vn -1.0000 -0.0000 -0.0000
vn 1.0000 -0.0000 -0.0000
vn -0.0000 -0.0000 1.0000
vn 0.9655 -0.0048 0.2603
vn -0.0000 -0.0000 -1.0000
vn -0.0000 -0.9407 0.3393
vn -0.0000 0.9598 0.2806
vn -0.9655 -0.0048 0.2603
vn -0.0000 0.7838 0.6210
vn -0.0000 -0.6575 -0.7535
vn -0.0000 -0.2080 0.9781
vn -0.0000 0.4119 0.9112
vn -0.0000 -0.0853 -0.9964
vn -0.0000 -0.7839 0.6209
vn -0.0000 0.3742 -0.9274
vn -0.0000 0.7768 -0.6298
vn -0.0000 0.9952 -0.0976
vn -0.9637 0.0078 -0.2668
vn 0.9637 0.0078 -0.2668
vn -0.0000 -0.1674 -0.9859
vn -0.0000 -0.4257 -0.9049
vn -0.0000 0.0817 -0.9967
vn -0.0000 0.4546 -0.8907
vn -0.0000 -0.0182 0.9998
vn -0.0000 -0.2600 0.9656
vn -0.0000 -0.6191 -0.7853
vn -0.0000 -0.0408 0.9992
vn -0.7071 -0.7071 -0.0000
vn 0.7071 -0.7071 -0.0000
vt 0.086353 0.018677
vt 0.288608 0.018677
vt 0.288608 0.076464
vt 0.086353 0.076464
vt 0.288608 0.134251
vt 0.086353 0.134251
vt 0.288608 0.192038
vt 0.086353 0.192038
vt 0.288608 0.249825
vt 0.086353 0.249825
vt 0.288608 0.307612
vt 0.086353 0.307612
vt 0.288608 0.423187
vt 0.288608 0.365399
vt 0.086353 0.365399
vt 0.086353 0.423187
vt 0.880422 0.196669
vt 0.954299 0.161091
vt 0.972546 0.081149
vt 0.921421 0.017040
vt 0.839422 0.017040
vt 0.788297 0.081149
vt 0.806544 0.161091
vt 0.908725 0.820437
vt 0.908725 0.752910
vt 0.959352 0.379383
vt 0.889804 0.412876
vt 0.820255 0.379383
vt 0.803078 0.304126
vt 0.851207 0.243774
vt 0.928400 0.243774
vt 0.976529 0.304126
vt 0.908725 0.685384
vt 0.908725 0.617857
vt 0.908725 0.550331
vt 0.908725 0.482804
vt 0.908725 0.887963
vt 0.968296 0.560839
vt 0.968296 0.503052
vt 0.745543 0.497539
vt 0.745543 0.735166
vt 0.811417 0.735166
vt 0.811417 0.497539
vt 0.539629 0.497539
vt 0.539629 0.735166
vt 0.647715 0.735166
vt 0.651358 0.497539
vt 0.183189 0.497539
vt 0.183189 0.735166
vt 0.420816 0.735166
vt 0.420816 0.497539
vt 0.539629 0.022285
vt 0.539629 0.259912
vt 0.651557 0.259912
vt 0.648017 0.022285
vt 0.420816 0.259912
vt 0.505849 0.497539
vt 0.505849 0.259912
vt 0.505849 0.735166
vt 0.539629 0.972793
vt 0.505849 0.022285
vt 0.420816 0.022285
vt 0.420816 0.972793
vt 0.505849 0.972793
vt 0.651358 0.497539
vt 0.658443 0.410439
vt 0.658443 0.344565
vt 0.658443 0.259912
vt 0.658443 0.022285
vt 0.648017 0.972793
vt 0.658443 0.888140
vt 0.658443 0.822267
s 0
usemtl Material.001
f 1/1/1 2/2/1 4/3/1 3/4/1
f 3/4/2 4/3/2 6/5/2 5/6/2
f 5/6/3 6/5/3 8/7/3 7/8/3
f 7/8/4 8/7/4 10/9/4 9/10/4
f 9/10/5 10/9/5 12/11/5 11/12/5
f 2/13/6 14/14/6 28/14/6 22/13/6
f 11/12/7 12/11/7 14/14/7 13/15/7
f 13/15/8 14/14/8 2/13/8 1/16/8
f 5/6/9 7/8/9 18/8/9 17/6/9
f 15/17/10 16/18/10 17/19/10 18/20/10 19/21/10 20/22/10 21/23/10
f 11/12/11 13/15/11 21/15/11 20/12/11
f 7/8/12 9/10/12 19/10/12 18/8/12
f 13/15/13 1/16/13 15/16/13 21/15/13
f 3/4/14 5/6/14 17/6/14 16/4/14
f 9/10/15 11/12/15 20/12/15 19/10/15
f 1/1/16 3/4/16 16/4/16 15/1/16
f 28/14/17 27/11/17 34/11/17 35/14/17
f 6/5/18 4/3/18 23/3/18 24/5/18
f 12/11/19 10/9/19 26/9/19 27/11/19
f 4/3/20 2/2/20 22/2/20 23/3/20
f 8/7/21 6/5/21 24/5/21 25/7/21
f 14/14/22 12/11/22 27/11/22 28/14/22
f 10/9/23 8/7/23 25/7/23 26/9/23
f 34/11/24 33/9/24 40/9/24 41/11/24
f 26/9/25 25/7/25 32/7/25 33/9/25
f 24/5/26 23/3/26 30/3/26 31/5/26
f 22/13/27 28/14/27 35/14/27 29/13/27
f 27/11/28 26/9/28 33/9/28 34/11/28
f 25/7/29 24/5/29 31/5/29 32/7/29
f 23/3/30 22/2/30 29/2/30 30/3/30
f 38/5/31 37/3/31 43/3/31 45/5/31
f 32/7/32 31/5/32 38/5/32 39/7/32
f 30/3/33 29/2/33 36/2/33 37/3/33
f 35/14/34 34/11/34 41/11/34 42/14/34
f 33/9/35 32/7/35 39/7/35 40/9/35
f 31/5/36 30/3/36 37/3/36 38/5/36
f 29/13/37 35/14/37 42/14/37 36/13/37
f 49/24/38 48/25/38 55/25/38 56/24/38
f 36/13/31 42/14/31 49/14/31 44/13/31
f 41/11/39 40/9/39 47/9/39 48/11/39
f 39/7/40 38/5/40 45/5/40 46/7/40
f 37/3/31 36/2/31 44/2/31 43/3/31
f 42/14/31 41/11/31 48/11/31 49/14/31
f 40/9/41 39/7/41 46/7/41 47/9/41
f 50/26/42 51/27/42 56/28/42 55/29/42 54/30/42 53/31/42 52/32/42
f 47/33/43 46/34/43 53/34/43 54/33/43
f 45/35/44 43/36/44 50/36/44 52/35/44
f 44/37/45 49/24/45 56/24/45 51/37/45
f 48/25/46 47/33/46 54/33/46 55/25/46
f 46/34/47 45/35/47 52/35/47 53/34/47
f 43/38/48 44/39/48 51/39/48 50/38/48
f 108/40/10 105/41/10 110/42/10 111/43/10
f 66/44/49 65/45/49 106/46/49 107/47/49
f 58/48/31 57/49/31 59/50/31 60/51/31
f 68/52/50 67/53/50 112/54/50 109/55/50
f 58/56/51 60/51/51 63/57/51 64/58/51
f 63/57/49 62/59/49 65/45/49 66/44/49
f 68/60/10 65/45/10 87/45/10 88/60/10
f 61/61/50 64/58/50 67/53/50 68/52/50
f 57/62/50 58/56/50 64/58/50 61/61/50
f 67/53/52 64/58/52 70/58/52 72/53/52
f 59/50/53 57/63/53 61/64/53 62/59/53
f 60/51/49 59/50/49 62/59/49 63/57/49
f 69/57/49 71/44/49 75/44/49 73/57/49
f 66/44/54 67/53/54 72/53/54 71/44/54
f 64/58/55 63/57/55 69/57/55 70/58/55
f 63/57/56 66/44/56 71/44/56 69/57/56
f 76/53/50 74/58/50 78/58/50 80/53/50
f 72/53/50 70/58/50 74/58/50 76/53/50
f 70/58/57 69/57/57 73/57/57 74/58/57
f 71/44/58 72/53/58 76/53/58 75/44/58
f 78/58/59 77/57/59 81/57/59 82/58/59
f 74/58/60 73/57/60 77/57/60 78/58/60
f 75/44/61 76/53/61 80/53/61 79/44/61
f 73/57/49 75/44/49 79/44/49 77/57/49
f 82/58/62 81/57/62 83/44/62 84/53/62
f 79/44/63 80/53/63 84/53/63 83/44/63
f 77/57/49 79/44/49 83/44/49 81/57/49
f 80/53/50 78/58/50 82/58/50 84/53/50
f 86/59/64 85/64/64 89/64/64 90/59/64
f 62/59/65 61/64/65 85/64/65 86/59/65
f 65/45/66 62/59/66 86/59/66 87/45/66
f 61/61/67 68/52/67 88/52/67 85/61/67
f 92/60/68 91/45/68 95/45/68 96/60/68
f 91/45/69 92/60/69 100/60/69 99/45/69
f 85/61/50 88/52/50 92/52/50 89/61/50
f 87/45/49 86/59/49 90/59/49 91/45/49
f 94/59/70 93/64/70 96/60/70 95/45/70
f 89/61/50 92/52/50 96/52/50 93/61/50
f 91/45/49 90/59/49 94/59/49 95/45/49
f 90/59/71 89/64/71 93/64/71 94/59/71
f 100/52/50 98/52/50 102/52/50 104/52/50
f 87/45/49 91/45/49 99/45/49 97/45/49
f 88/60/72 87/45/72 97/45/72 98/60/72
f 92/52/50 88/52/50 98/52/50 100/52/50
f 102/60/73 101/45/73 103/45/73 104/60/73
f 99/45/74 100/60/74 104/60/74 103/45/74
f 97/45/49 99/45/49 103/45/49 101/45/49
f 98/60/75 97/45/75 101/45/75 102/60/75
f 107/47/76 106/46/76 105/41/76 108/40/76
f 67/53/51 66/44/51 107/65/51 108/66/51 111/67/51 112/54/51
f 109/55/77 112/54/77 111/68/77 110/69/77
f 65/45/53 68/60/53 109/70/53 110/71/53 105/72/53 106/46/53
